<svg xmlns="http://www.w3.org/2000/svg" baseProfile="tiny" preserveAspectRatio="none" viewBox="0 0 1600 814.898"><path d="M0 5.613L172.9 0c85.334 0 225.332 15.332 303.332 24.665l250.668 30S857.9 75 998.9 73s365-19.861 476-36.431L1599.9 15l.1 69.25L1190.9 146l-687-10-258-28-149-13h-71L0 100V5.613z" fill="#EBEBEB"/><radialGradient id="A" cx="763.999" cy="451.212" r="982.571" gradientUnits="userSpaceOnUse"><stop offset="0" stop-color="#1C6487"/><stop offset=".155" stop-color="#1B5F80"/><stop offset=".376" stop-color="#1A516D"/><stop offset=".637" stop-color="#173A4F"/><stop offset=".926" stop-color="#131A24"/><stop offset="1" stop-color="#121118"/></radialGradient><path d="M.05 55.619s69.566-9.333 183.566-13.333 301.333 8.667 366.666 17.334l307.333 40c59.334 4 156.666 14.667 274.666 10l292-20 164.668-21.333 10.902-2 .1 726.663-195.67 18.666c-87.332 4.668-203.332 6.664-339.332 0L602.28 773.622c-84-6.668-206-24.668-400-16.668L4.946 765.622l-4.896.664V55.619z" fill="url(#A)"/></svg>