<?xml version="1.0" encoding="utf-8"?>
<!-- Generator: Adobe Illustrator 16.0.0, SVG Export Plug-In . SVG Version: 6.00 Build 0)  -->
<svg version="1.2" baseProfile="tiny" xmlns="http://www.w3.org/2000/svg" xmlns:xlink="http://www.w3.org/1999/xlink" x="0px"
	 y="0px" width="1500px" height="670.568px" viewBox="0 0 1500 670.568" xml:space="preserve">
<g id="Layer_1" display="none">
</g>
<g id="Layer_2" display="none">
</g>
<g id="Layer_5" display="none">
	<path display="inline" fill="#F0F5FF" d="M-49,33c0,0-60-7,138-20S340-2,488,23s342,91,538,121s326,10,395,0s219-27,219-27l23,12
		l11,30.845L1665,205l-165,75H987l-136-44.501L519,177l-93-8l-159-17l-98,7l-127,8l-69-12L-49,33z"/>
</g>
<g id="Layer_7">
	<path fill="#F0F5FF" d="M1,15.937V226h1487.008H1500v-96.399c0,0-266.822,48.399-509.659,2.399
		C747.502,86,621.586,35.874,476.683,15.937S117.232,6.311,59.116,11.124C1,15.937,1,15.937,1,15.937z"/>
	<path fill="#F0F5FF" d="M0,230"/>
</g>
<g id="Layer_4" display="none">
	<path display="inline" fill="#FFFFFF" d="M-92,56"/>
</g>
<g id="Layer_6" display="none">
</g>
<g id="Layer_3">
	<path fill="#FFFFFF" d="M1500,373.584H10.988H2V54.049c0,0,41.266-28.694,259.689-8.743s289.275,32.299,380.468,52.362
		c91.193,20.062,410.627,84.848,464.883,92.787s131.291,21.733,246.146,21.607C1468.043,211.938,1500,201.771,1500,201.771V373.584z
		"/>
</g>
<g id="Layer_8">
	<rect x="2" y="238.589" fill="#FFFFFF" width="1498" height="431.979"/>
</g>
</svg>
